<mxfile host="app.diagrams.net" modified="2023-09-27T08:33:25.638Z" agent="Mozilla/5.0 (Windows NT 10.0; Win64; x64) AppleWebKit/537.36 (KHTML, like Gecko) Chrome/117.0.0.0 Safari/537.36 Edg/117.0.2045.41" etag="kAQZelg0NgGeJeFFEinW" version="21.8.2" type="github">
  <diagram id="R2lEEEUBdFMjLlhIrx00" name="Page-1">
    <mxGraphModel dx="2236" dy="785" grid="1" gridSize="10" guides="1" tooltips="1" connect="1" arrows="1" fold="1" page="1" pageScale="1" pageWidth="850" pageHeight="1100" math="0" shadow="0" extFonts="Permanent Marker^https://fonts.googleapis.com/css?family=Permanent+Marker">
      <root>
        <mxCell id="0" />
        <mxCell id="1" parent="0" />
        <mxCell id="CgwxtlaAnWrpsqy49woL-5" value="User" style="rounded=0;whiteSpace=wrap;html=1;" vertex="1" parent="1">
          <mxGeometry x="120" y="290" width="120" height="60" as="geometry" />
        </mxCell>
        <object label="L&lt;font size=&quot;3&quot;&gt;ogin&lt;/font&gt;" login="" id="CgwxtlaAnWrpsqy49woL-6">
          <mxCell style="rounded=0;whiteSpace=wrap;html=1;" vertex="1" parent="1">
            <mxGeometry x="360" y="160" width="120" height="60" as="geometry" />
          </mxCell>
        </object>
        <mxCell id="CgwxtlaAnWrpsqy49woL-7" value="Roles" style="rounded=0;whiteSpace=wrap;html=1;" vertex="1" parent="1">
          <mxGeometry x="620" y="290" width="120" height="60" as="geometry" />
        </mxCell>
        <mxCell id="CgwxtlaAnWrpsqy49woL-8" value="Has" style="rhombus;whiteSpace=wrap;html=1;" vertex="1" parent="1">
          <mxGeometry x="380" y="280" width="80" height="80" as="geometry" />
        </mxCell>
        <mxCell id="CgwxtlaAnWrpsqy49woL-9" value="" style="endArrow=none;html=1;rounded=0;exitX=0.5;exitY=0;exitDx=0;exitDy=0;entryX=0.5;entryY=1;entryDx=0;entryDy=0;" edge="1" parent="1" source="CgwxtlaAnWrpsqy49woL-8" target="CgwxtlaAnWrpsqy49woL-6">
          <mxGeometry width="50" height="50" relative="1" as="geometry">
            <mxPoint x="390" y="280" as="sourcePoint" />
            <mxPoint x="440" y="230" as="targetPoint" />
          </mxGeometry>
        </mxCell>
        <mxCell id="CgwxtlaAnWrpsqy49woL-10" value="" style="endArrow=none;html=1;rounded=0;entryX=0;entryY=0.5;entryDx=0;entryDy=0;exitX=1;exitY=0.5;exitDx=0;exitDy=0;" edge="1" parent="1" source="CgwxtlaAnWrpsqy49woL-5" target="CgwxtlaAnWrpsqy49woL-8">
          <mxGeometry width="50" height="50" relative="1" as="geometry">
            <mxPoint x="290" y="350" as="sourcePoint" />
            <mxPoint x="340" y="300" as="targetPoint" />
          </mxGeometry>
        </mxCell>
        <mxCell id="CgwxtlaAnWrpsqy49woL-11" value="" style="endArrow=none;html=1;rounded=0;entryX=0;entryY=0.5;entryDx=0;entryDy=0;exitX=1;exitY=0.5;exitDx=0;exitDy=0;" edge="1" parent="1" source="CgwxtlaAnWrpsqy49woL-8" target="CgwxtlaAnWrpsqy49woL-7">
          <mxGeometry width="50" height="50" relative="1" as="geometry">
            <mxPoint x="510" y="310" as="sourcePoint" />
            <mxPoint x="650" y="310" as="targetPoint" />
          </mxGeometry>
        </mxCell>
        <mxCell id="CgwxtlaAnWrpsqy49woL-12" value="#login_ID" style="ellipse;whiteSpace=wrap;html=1;" vertex="1" parent="1">
          <mxGeometry x="220" y="80" width="90" height="50" as="geometry" />
        </mxCell>
        <mxCell id="CgwxtlaAnWrpsqy49woL-13" value="login_role_ID" style="ellipse;whiteSpace=wrap;html=1;" vertex="1" parent="1">
          <mxGeometry x="280" y="10" width="90" height="50" as="geometry" />
        </mxCell>
        <mxCell id="CgwxtlaAnWrpsqy49woL-14" value="login_user_name" style="ellipse;whiteSpace=wrap;html=1;" vertex="1" parent="1">
          <mxGeometry x="400" y="40" width="120" height="50" as="geometry" />
        </mxCell>
        <mxCell id="CgwxtlaAnWrpsqy49woL-15" value="user_password" style="ellipse;whiteSpace=wrap;html=1;" vertex="1" parent="1">
          <mxGeometry x="510" y="80" width="110" height="50" as="geometry" />
        </mxCell>
        <mxCell id="CgwxtlaAnWrpsqy49woL-16" value="" style="endArrow=none;html=1;rounded=0;entryX=0.067;entryY=-0.017;entryDx=0;entryDy=0;entryPerimeter=0;exitX=1;exitY=1;exitDx=0;exitDy=0;" edge="1" parent="1" source="CgwxtlaAnWrpsqy49woL-12" target="CgwxtlaAnWrpsqy49woL-6">
          <mxGeometry width="50" height="50" relative="1" as="geometry">
            <mxPoint x="300" y="160" as="sourcePoint" />
            <mxPoint x="350" y="110" as="targetPoint" />
          </mxGeometry>
        </mxCell>
        <mxCell id="CgwxtlaAnWrpsqy49woL-17" value="" style="endArrow=none;html=1;rounded=0;exitX=0.25;exitY=0;exitDx=0;exitDy=0;entryX=0.744;entryY=0.98;entryDx=0;entryDy=0;entryPerimeter=0;" edge="1" parent="1" source="CgwxtlaAnWrpsqy49woL-6" target="CgwxtlaAnWrpsqy49woL-13">
          <mxGeometry width="50" height="50" relative="1" as="geometry">
            <mxPoint x="350" y="130" as="sourcePoint" />
            <mxPoint x="400" y="80" as="targetPoint" />
          </mxGeometry>
        </mxCell>
        <mxCell id="CgwxtlaAnWrpsqy49woL-18" value="" style="endArrow=none;html=1;rounded=0;entryX=0.5;entryY=1;entryDx=0;entryDy=0;" edge="1" parent="1" target="CgwxtlaAnWrpsqy49woL-14">
          <mxGeometry width="50" height="50" relative="1" as="geometry">
            <mxPoint x="410" y="160" as="sourcePoint" />
            <mxPoint x="460" y="110" as="targetPoint" />
          </mxGeometry>
        </mxCell>
        <mxCell id="CgwxtlaAnWrpsqy49woL-19" value="" style="endArrow=none;html=1;rounded=0;entryX=0;entryY=1;entryDx=0;entryDy=0;exitX=1;exitY=0;exitDx=0;exitDy=0;" edge="1" parent="1" source="CgwxtlaAnWrpsqy49woL-6" target="CgwxtlaAnWrpsqy49woL-15">
          <mxGeometry width="50" height="50" relative="1" as="geometry">
            <mxPoint x="460" y="180" as="sourcePoint" />
            <mxPoint x="510" y="130" as="targetPoint" />
          </mxGeometry>
        </mxCell>
        <mxCell id="CgwxtlaAnWrpsqy49woL-21" value="#user_ID" style="ellipse;whiteSpace=wrap;html=1;" vertex="1" parent="1">
          <mxGeometry x="170" y="210" width="90" height="50" as="geometry" />
        </mxCell>
        <mxCell id="CgwxtlaAnWrpsqy49woL-22" value="user_name&lt;br&gt;" style="ellipse;whiteSpace=wrap;html=1;" vertex="1" parent="1">
          <mxGeometry x="60" y="210" width="90" height="50" as="geometry" />
        </mxCell>
        <mxCell id="CgwxtlaAnWrpsqy49woL-23" value="user_mobile" style="ellipse;whiteSpace=wrap;html=1;" vertex="1" parent="1">
          <mxGeometry y="270" width="90" height="50" as="geometry" />
        </mxCell>
        <mxCell id="CgwxtlaAnWrpsqy49woL-24" value="user_email" style="ellipse;whiteSpace=wrap;html=1;" vertex="1" parent="1">
          <mxGeometry y="350" width="90" height="50" as="geometry" />
        </mxCell>
        <mxCell id="CgwxtlaAnWrpsqy49woL-25" value="user_address" style="ellipse;whiteSpace=wrap;html=1;" vertex="1" parent="1">
          <mxGeometry x="100" y="380" width="110" height="50" as="geometry" />
        </mxCell>
        <mxCell id="CgwxtlaAnWrpsqy49woL-26" value="" style="endArrow=none;html=1;rounded=0;entryX=0.5;entryY=1;entryDx=0;entryDy=0;exitX=0.642;exitY=0;exitDx=0;exitDy=0;exitPerimeter=0;" edge="1" parent="1" source="CgwxtlaAnWrpsqy49woL-5" target="CgwxtlaAnWrpsqy49woL-21">
          <mxGeometry width="50" height="50" relative="1" as="geometry">
            <mxPoint x="180" y="310" as="sourcePoint" />
            <mxPoint x="230" y="260" as="targetPoint" />
          </mxGeometry>
        </mxCell>
        <mxCell id="CgwxtlaAnWrpsqy49woL-27" value="" style="endArrow=none;html=1;rounded=0;exitX=0.711;exitY=0.94;exitDx=0;exitDy=0;exitPerimeter=0;" edge="1" parent="1" source="CgwxtlaAnWrpsqy49woL-22" target="CgwxtlaAnWrpsqy49woL-5">
          <mxGeometry width="50" height="50" relative="1" as="geometry">
            <mxPoint x="130" y="300" as="sourcePoint" />
            <mxPoint x="180" y="250" as="targetPoint" />
          </mxGeometry>
        </mxCell>
        <mxCell id="CgwxtlaAnWrpsqy49woL-28" value="" style="endArrow=none;html=1;rounded=0;entryX=0;entryY=0.25;entryDx=0;entryDy=0;exitX=1;exitY=0.5;exitDx=0;exitDy=0;" edge="1" parent="1" source="CgwxtlaAnWrpsqy49woL-23" target="CgwxtlaAnWrpsqy49woL-5">
          <mxGeometry width="50" height="50" relative="1" as="geometry">
            <mxPoint x="80" y="320" as="sourcePoint" />
            <mxPoint x="130" y="270" as="targetPoint" />
          </mxGeometry>
        </mxCell>
        <mxCell id="CgwxtlaAnWrpsqy49woL-29" value="" style="endArrow=none;html=1;rounded=0;entryX=0;entryY=1;entryDx=0;entryDy=0;exitX=1;exitY=0.5;exitDx=0;exitDy=0;" edge="1" parent="1" source="CgwxtlaAnWrpsqy49woL-24" target="CgwxtlaAnWrpsqy49woL-5">
          <mxGeometry width="50" height="50" relative="1" as="geometry">
            <mxPoint x="90" y="380" as="sourcePoint" />
            <mxPoint x="140" y="330" as="targetPoint" />
          </mxGeometry>
        </mxCell>
        <mxCell id="CgwxtlaAnWrpsqy49woL-30" value="" style="endArrow=none;html=1;rounded=0;entryX=0.5;entryY=1;entryDx=0;entryDy=0;" edge="1" parent="1" source="CgwxtlaAnWrpsqy49woL-25" target="CgwxtlaAnWrpsqy49woL-5">
          <mxGeometry width="50" height="50" relative="1" as="geometry">
            <mxPoint x="155" y="359.28932188134524" as="sourcePoint" />
            <mxPoint x="155" y="309.28932188134524" as="targetPoint" />
          </mxGeometry>
        </mxCell>
        <mxCell id="CgwxtlaAnWrpsqy49woL-31" value="role_ID" style="ellipse;whiteSpace=wrap;html=1;" vertex="1" parent="1">
          <mxGeometry x="750" y="200" width="95" height="60" as="geometry" />
        </mxCell>
        <mxCell id="CgwxtlaAnWrpsqy49woL-32" value="role_name" style="ellipse;whiteSpace=wrap;html=1;" vertex="1" parent="1">
          <mxGeometry x="780" y="280" width="100" height="60" as="geometry" />
        </mxCell>
        <mxCell id="CgwxtlaAnWrpsqy49woL-33" value="role_description" style="ellipse;whiteSpace=wrap;html=1;" vertex="1" parent="1">
          <mxGeometry x="750" y="370" width="110" height="50" as="geometry" />
        </mxCell>
        <mxCell id="CgwxtlaAnWrpsqy49woL-34" value="" style="endArrow=none;html=1;rounded=0;exitX=0.842;exitY=0.033;exitDx=0;exitDy=0;exitPerimeter=0;" edge="1" parent="1" source="CgwxtlaAnWrpsqy49woL-7" target="CgwxtlaAnWrpsqy49woL-31">
          <mxGeometry width="50" height="50" relative="1" as="geometry">
            <mxPoint x="730" y="280" as="sourcePoint" />
            <mxPoint x="770" y="220" as="targetPoint" />
          </mxGeometry>
        </mxCell>
        <mxCell id="CgwxtlaAnWrpsqy49woL-35" value="" style="endArrow=none;html=1;rounded=0;entryX=0;entryY=0.5;entryDx=0;entryDy=0;exitX=1;exitY=0.5;exitDx=0;exitDy=0;" edge="1" parent="1" source="CgwxtlaAnWrpsqy49woL-7" target="CgwxtlaAnWrpsqy49woL-32">
          <mxGeometry width="50" height="50" relative="1" as="geometry">
            <mxPoint x="720" y="350" as="sourcePoint" />
            <mxPoint x="770" y="300" as="targetPoint" />
          </mxGeometry>
        </mxCell>
        <mxCell id="CgwxtlaAnWrpsqy49woL-36" value="" style="endArrow=none;html=1;rounded=0;entryX=0.25;entryY=0.067;entryDx=0;entryDy=0;entryPerimeter=0;exitX=0.917;exitY=1.039;exitDx=0;exitDy=0;exitPerimeter=0;" edge="1" parent="1" source="CgwxtlaAnWrpsqy49woL-7" target="CgwxtlaAnWrpsqy49woL-33">
          <mxGeometry width="50" height="50" relative="1" as="geometry">
            <mxPoint x="720" y="400" as="sourcePoint" />
            <mxPoint x="770" y="350" as="targetPoint" />
          </mxGeometry>
        </mxCell>
        <mxCell id="CgwxtlaAnWrpsqy49woL-38" value="" style="endArrow=none;html=1;rounded=0;exitX=0.5;exitY=1;exitDx=0;exitDy=0;edgeStyle=orthogonalEdgeStyle;" edge="1" parent="1" source="CgwxtlaAnWrpsqy49woL-8">
          <mxGeometry width="50" height="50" relative="1" as="geometry">
            <mxPoint x="400" y="330" as="sourcePoint" />
            <mxPoint x="610" y="510" as="targetPoint" />
            <Array as="points">
              <mxPoint x="420" y="510" />
              <mxPoint x="611" y="510" />
            </Array>
          </mxGeometry>
        </mxCell>
        <mxCell id="CgwxtlaAnWrpsqy49woL-39" value="permission" style="rounded=0;whiteSpace=wrap;html=1;" vertex="1" parent="1">
          <mxGeometry x="610" y="480" width="130" height="70" as="geometry" />
        </mxCell>
        <mxCell id="CgwxtlaAnWrpsqy49woL-40" value="per_id" style="ellipse;whiteSpace=wrap;html=1;" vertex="1" parent="1">
          <mxGeometry x="810" y="450" width="90" height="50" as="geometry" />
        </mxCell>
        <mxCell id="CgwxtlaAnWrpsqy49woL-41" value="per_role_id" style="ellipse;whiteSpace=wrap;html=1;" vertex="1" parent="1">
          <mxGeometry x="810" y="525" width="90" height="50" as="geometry" />
        </mxCell>
        <mxCell id="CgwxtlaAnWrpsqy49woL-42" value="per_module" style="ellipse;whiteSpace=wrap;html=1;" vertex="1" parent="1">
          <mxGeometry x="760" y="590" width="90" height="50" as="geometry" />
        </mxCell>
        <mxCell id="CgwxtlaAnWrpsqy49woL-44" value="" style="endArrow=none;html=1;rounded=0;entryX=0;entryY=0.5;entryDx=0;entryDy=0;exitX=1;exitY=0.25;exitDx=0;exitDy=0;" edge="1" parent="1" source="CgwxtlaAnWrpsqy49woL-39" target="CgwxtlaAnWrpsqy49woL-40">
          <mxGeometry width="50" height="50" relative="1" as="geometry">
            <mxPoint x="750" y="520" as="sourcePoint" />
            <mxPoint x="800" y="470" as="targetPoint" />
          </mxGeometry>
        </mxCell>
        <mxCell id="CgwxtlaAnWrpsqy49woL-45" value="" style="endArrow=none;html=1;rounded=0;exitX=1;exitY=0.5;exitDx=0;exitDy=0;entryX=0.011;entryY=0.32;entryDx=0;entryDy=0;entryPerimeter=0;" edge="1" parent="1" source="CgwxtlaAnWrpsqy49woL-39" target="CgwxtlaAnWrpsqy49woL-41">
          <mxGeometry width="50" height="50" relative="1" as="geometry">
            <mxPoint x="750" y="560" as="sourcePoint" />
            <mxPoint x="800" y="510" as="targetPoint" />
          </mxGeometry>
        </mxCell>
        <mxCell id="CgwxtlaAnWrpsqy49woL-46" value="" style="endArrow=none;html=1;rounded=0;entryX=0;entryY=0;entryDx=0;entryDy=0;exitX=0.854;exitY=1;exitDx=0;exitDy=0;exitPerimeter=0;" edge="1" parent="1" source="CgwxtlaAnWrpsqy49woL-39" target="CgwxtlaAnWrpsqy49woL-42">
          <mxGeometry width="50" height="50" relative="1" as="geometry">
            <mxPoint x="710" y="610" as="sourcePoint" />
            <mxPoint x="760" y="560" as="targetPoint" />
          </mxGeometry>
        </mxCell>
        <mxCell id="CgwxtlaAnWrpsqy49woL-47" value="per_name" style="ellipse;whiteSpace=wrap;html=1;" vertex="1" parent="1">
          <mxGeometry x="670" y="620" width="90" height="50" as="geometry" />
        </mxCell>
        <mxCell id="CgwxtlaAnWrpsqy49woL-48" value="" style="endArrow=none;html=1;rounded=0;entryX=0.422;entryY=0.04;entryDx=0;entryDy=0;entryPerimeter=0;" edge="1" parent="1" source="CgwxtlaAnWrpsqy49woL-39" target="CgwxtlaAnWrpsqy49woL-47">
          <mxGeometry width="50" height="50" relative="1" as="geometry">
            <mxPoint x="675" y="600" as="sourcePoint" />
            <mxPoint x="675" y="620.7106781186548" as="targetPoint" />
          </mxGeometry>
        </mxCell>
        <mxCell id="CgwxtlaAnWrpsqy49woL-50" value="" style="endArrow=none;html=1;rounded=0;entryX=0.817;entryY=0.983;entryDx=0;entryDy=0;entryPerimeter=0;edgeStyle=orthogonalEdgeStyle;exitX=0;exitY=0.5;exitDx=0;exitDy=0;" edge="1" parent="1" source="CgwxtlaAnWrpsqy49woL-51" target="CgwxtlaAnWrpsqy49woL-5">
          <mxGeometry width="50" height="50" relative="1" as="geometry">
            <mxPoint x="410" y="690" as="sourcePoint" />
            <mxPoint x="360" y="470" as="targetPoint" />
            <Array as="points">
              <mxPoint x="410" y="610" />
              <mxPoint x="218" y="610" />
            </Array>
          </mxGeometry>
        </mxCell>
        <mxCell id="CgwxtlaAnWrpsqy49woL-51" value="Manage" style="rhombus;whiteSpace=wrap;html=1;" vertex="1" parent="1">
          <mxGeometry x="410" y="640" width="120" height="110" as="geometry" />
        </mxCell>
        <mxCell id="CgwxtlaAnWrpsqy49woL-52" value="Counting" style="rounded=0;whiteSpace=wrap;html=1;" vertex="1" parent="1">
          <mxGeometry x="770" y="790" width="120" height="60" as="geometry" />
        </mxCell>
        <mxCell id="CgwxtlaAnWrpsqy49woL-53" value="Candidate" style="rounded=0;whiteSpace=wrap;html=1;" vertex="1" parent="1">
          <mxGeometry x="410" y="930" width="120" height="60" as="geometry" />
        </mxCell>
        <mxCell id="CgwxtlaAnWrpsqy49woL-54" value="Citizen" style="rounded=0;whiteSpace=wrap;html=1;" vertex="1" parent="1">
          <mxGeometry x="110" y="810" width="120" height="60" as="geometry" />
        </mxCell>
        <mxCell id="CgwxtlaAnWrpsqy49woL-58" value="" style="endArrow=none;html=1;rounded=0;entryX=0.5;entryY=1;entryDx=0;entryDy=0;exitX=0.5;exitY=0;exitDx=0;exitDy=0;" edge="1" parent="1" source="CgwxtlaAnWrpsqy49woL-53" target="CgwxtlaAnWrpsqy49woL-51">
          <mxGeometry width="50" height="50" relative="1" as="geometry">
            <mxPoint x="540" y="840" as="sourcePoint" />
            <mxPoint x="590" y="790" as="targetPoint" />
          </mxGeometry>
        </mxCell>
        <mxCell id="CgwxtlaAnWrpsqy49woL-60" value="" style="endArrow=none;html=1;rounded=0;entryX=0;entryY=0.5;entryDx=0;entryDy=0;edgeStyle=orthogonalEdgeStyle;exitX=1;exitY=0.5;exitDx=0;exitDy=0;" edge="1" parent="1" source="CgwxtlaAnWrpsqy49woL-54" target="CgwxtlaAnWrpsqy49woL-51">
          <mxGeometry width="50" height="50" relative="1" as="geometry">
            <mxPoint x="170" y="695" as="sourcePoint" />
            <mxPoint x="330" y="720" as="targetPoint" />
            <Array as="points">
              <mxPoint x="291" y="840" />
              <mxPoint x="291" y="695" />
            </Array>
          </mxGeometry>
        </mxCell>
        <mxCell id="CgwxtlaAnWrpsqy49woL-62" value="" style="endArrow=none;html=1;rounded=0;entryX=1;entryY=0.5;entryDx=0;entryDy=0;edgeStyle=orthogonalEdgeStyle;exitX=0;exitY=0.25;exitDx=0;exitDy=0;" edge="1" parent="1" source="CgwxtlaAnWrpsqy49woL-52" target="CgwxtlaAnWrpsqy49woL-51">
          <mxGeometry width="50" height="50" relative="1" as="geometry">
            <mxPoint x="720" y="810" as="sourcePoint" />
            <mxPoint x="670" y="760" as="targetPoint" />
            <Array as="points">
              <mxPoint x="650" y="805" />
              <mxPoint x="650" y="695" />
            </Array>
          </mxGeometry>
        </mxCell>
        <mxCell id="CgwxtlaAnWrpsqy49woL-63" value="Ctz_pass" style="ellipse;whiteSpace=wrap;html=1;" vertex="1" parent="1">
          <mxGeometry x="160" y="680" width="90" height="50" as="geometry" />
        </mxCell>
        <mxCell id="CgwxtlaAnWrpsqy49woL-64" value="Ctz_name" style="ellipse;whiteSpace=wrap;html=1;" vertex="1" parent="1">
          <mxGeometry x="-60" y="750" width="90" height="50" as="geometry" />
        </mxCell>
        <mxCell id="CgwxtlaAnWrpsqy49woL-65" value="Ctz_mobile" style="ellipse;whiteSpace=wrap;html=1;" vertex="1" parent="1">
          <mxGeometry x="-70" y="840" width="100" height="50" as="geometry" />
        </mxCell>
        <mxCell id="CgwxtlaAnWrpsqy49woL-66" value="Ctz_add" style="ellipse;whiteSpace=wrap;html=1;" vertex="1" parent="1">
          <mxGeometry x="30" y="920" width="90" height="50" as="geometry" />
        </mxCell>
        <mxCell id="CgwxtlaAnWrpsqy49woL-67" value="Ctz_email" style="ellipse;whiteSpace=wrap;html=1;" vertex="1" parent="1">
          <mxGeometry x="170" y="920" width="90" height="50" as="geometry" />
        </mxCell>
        <mxCell id="CgwxtlaAnWrpsqy49woL-68" value="Ctz_ID" style="ellipse;whiteSpace=wrap;html=1;" vertex="1" parent="1">
          <mxGeometry x="40" y="690" width="90" height="50" as="geometry" />
        </mxCell>
        <mxCell id="CgwxtlaAnWrpsqy49woL-69" value="" style="endArrow=none;html=1;rounded=0;exitX=0.75;exitY=0;exitDx=0;exitDy=0;entryX=0.611;entryY=1.04;entryDx=0;entryDy=0;entryPerimeter=0;" edge="1" parent="1" source="CgwxtlaAnWrpsqy49woL-54" target="CgwxtlaAnWrpsqy49woL-63">
          <mxGeometry width="50" height="50" relative="1" as="geometry">
            <mxPoint x="210" y="800" as="sourcePoint" />
            <mxPoint x="230" y="720" as="targetPoint" />
          </mxGeometry>
        </mxCell>
        <mxCell id="CgwxtlaAnWrpsqy49woL-70" value="" style="endArrow=none;html=1;rounded=0;entryX=0.7;entryY=0.94;entryDx=0;entryDy=0;entryPerimeter=0;exitX=0.342;exitY=0.017;exitDx=0;exitDy=0;exitPerimeter=0;" edge="1" parent="1" source="CgwxtlaAnWrpsqy49woL-54" target="CgwxtlaAnWrpsqy49woL-68">
          <mxGeometry width="50" height="50" relative="1" as="geometry">
            <mxPoint x="210" y="820" as="sourcePoint" />
            <mxPoint x="229" y="743" as="targetPoint" />
            <Array as="points" />
          </mxGeometry>
        </mxCell>
        <mxCell id="CgwxtlaAnWrpsqy49woL-71" value="" style="endArrow=none;html=1;rounded=0;entryX=1;entryY=1;entryDx=0;entryDy=0;exitX=0;exitY=0.25;exitDx=0;exitDy=0;" edge="1" parent="1" source="CgwxtlaAnWrpsqy49woL-54" target="CgwxtlaAnWrpsqy49woL-64">
          <mxGeometry width="50" height="50" relative="1" as="geometry">
            <mxPoint x="50" y="850" as="sourcePoint" />
            <mxPoint x="100" y="800" as="targetPoint" />
          </mxGeometry>
        </mxCell>
        <mxCell id="CgwxtlaAnWrpsqy49woL-72" value="" style="endArrow=none;html=1;rounded=0;exitX=1;exitY=0.5;exitDx=0;exitDy=0;entryX=0;entryY=0.5;entryDx=0;entryDy=0;" edge="1" parent="1" source="CgwxtlaAnWrpsqy49woL-65" target="CgwxtlaAnWrpsqy49woL-54">
          <mxGeometry width="50" height="50" relative="1" as="geometry">
            <mxPoint x="50" y="890" as="sourcePoint" />
            <mxPoint x="100" y="840" as="targetPoint" />
          </mxGeometry>
        </mxCell>
        <mxCell id="CgwxtlaAnWrpsqy49woL-74" value="" style="endArrow=none;html=1;rounded=0;" edge="1" parent="1">
          <mxGeometry width="50" height="50" relative="1" as="geometry">
            <mxPoint x="90" y="920" as="sourcePoint" />
            <mxPoint x="140" y="870" as="targetPoint" />
          </mxGeometry>
        </mxCell>
        <mxCell id="CgwxtlaAnWrpsqy49woL-75" value="" style="endArrow=none;html=1;rounded=0;exitX=0.422;exitY=-0.02;exitDx=0;exitDy=0;exitPerimeter=0;entryX=0.75;entryY=1;entryDx=0;entryDy=0;" edge="1" parent="1" source="CgwxtlaAnWrpsqy49woL-67" target="CgwxtlaAnWrpsqy49woL-54">
          <mxGeometry width="50" height="50" relative="1" as="geometry">
            <mxPoint x="250" y="920" as="sourcePoint" />
            <mxPoint x="300" y="870" as="targetPoint" />
          </mxGeometry>
        </mxCell>
        <mxCell id="CgwxtlaAnWrpsqy49woL-76" value="Count_data" style="ellipse;whiteSpace=wrap;html=1;" vertex="1" parent="1">
          <mxGeometry x="840" y="690" width="100" height="60" as="geometry" />
        </mxCell>
        <mxCell id="CgwxtlaAnWrpsqy49woL-77" value="Count_ID" style="ellipse;whiteSpace=wrap;html=1;" vertex="1" parent="1">
          <mxGeometry x="950" y="750" width="100" height="60" as="geometry" />
        </mxCell>
        <mxCell id="CgwxtlaAnWrpsqy49woL-78" value="Count_decription" style="ellipse;whiteSpace=wrap;html=1;" vertex="1" parent="1">
          <mxGeometry x="940" y="850" width="120" height="70" as="geometry" />
        </mxCell>
        <mxCell id="CgwxtlaAnWrpsqy49woL-79" value="Count_name" style="ellipse;whiteSpace=wrap;html=1;" vertex="1" parent="1">
          <mxGeometry x="830" y="920" width="120" height="60" as="geometry" />
        </mxCell>
        <mxCell id="CgwxtlaAnWrpsqy49woL-80" value="Count_type" style="ellipse;whiteSpace=wrap;html=1;" vertex="1" parent="1">
          <mxGeometry x="680" y="900" width="120" height="60" as="geometry" />
        </mxCell>
        <mxCell id="CgwxtlaAnWrpsqy49woL-81" value="" style="endArrow=none;html=1;rounded=0;exitX=0.642;exitY=0.017;exitDx=0;exitDy=0;exitPerimeter=0;" edge="1" parent="1" source="CgwxtlaAnWrpsqy49woL-52">
          <mxGeometry width="50" height="50" relative="1" as="geometry">
            <mxPoint x="840" y="800" as="sourcePoint" />
            <mxPoint x="890" y="750" as="targetPoint" />
          </mxGeometry>
        </mxCell>
        <mxCell id="CgwxtlaAnWrpsqy49woL-82" value="" style="endArrow=none;html=1;rounded=0;exitX=1;exitY=0.5;exitDx=0;exitDy=0;" edge="1" parent="1" source="CgwxtlaAnWrpsqy49woL-52">
          <mxGeometry width="50" height="50" relative="1" as="geometry">
            <mxPoint x="900" y="830" as="sourcePoint" />
            <mxPoint x="950" y="780" as="targetPoint" />
          </mxGeometry>
        </mxCell>
        <mxCell id="CgwxtlaAnWrpsqy49woL-83" value="" style="endArrow=none;html=1;rounded=0;exitX=0.846;exitY=0.143;exitDx=0;exitDy=0;exitPerimeter=0;entryX=0.25;entryY=1;entryDx=0;entryDy=0;" edge="1" parent="1" source="CgwxtlaAnWrpsqy49woL-80" target="CgwxtlaAnWrpsqy49woL-52">
          <mxGeometry width="50" height="50" relative="1" as="geometry">
            <mxPoint x="770" y="900" as="sourcePoint" />
            <mxPoint x="820" y="850" as="targetPoint" />
          </mxGeometry>
        </mxCell>
        <mxCell id="CgwxtlaAnWrpsqy49woL-84" value="" style="endArrow=none;html=1;rounded=0;entryX=0.692;entryY=0.983;entryDx=0;entryDy=0;entryPerimeter=0;" edge="1" parent="1" target="CgwxtlaAnWrpsqy49woL-52">
          <mxGeometry width="50" height="50" relative="1" as="geometry">
            <mxPoint x="870" y="920" as="sourcePoint" />
            <mxPoint x="920" y="870" as="targetPoint" />
          </mxGeometry>
        </mxCell>
        <mxCell id="CgwxtlaAnWrpsqy49woL-85" value="" style="endArrow=none;html=1;rounded=0;entryX=1;entryY=1;entryDx=0;entryDy=0;exitX=0;exitY=0.3;exitDx=0;exitDy=0;exitPerimeter=0;" edge="1" parent="1" source="CgwxtlaAnWrpsqy49woL-78" target="CgwxtlaAnWrpsqy49woL-52">
          <mxGeometry width="50" height="50" relative="1" as="geometry">
            <mxPoint x="1020" y="1020" as="sourcePoint" />
            <mxPoint x="1070" y="970" as="targetPoint" />
          </mxGeometry>
        </mxCell>
        <mxCell id="CgwxtlaAnWrpsqy49woL-86" value="Can_pass" style="ellipse;whiteSpace=wrap;html=1;" vertex="1" parent="1">
          <mxGeometry x="500" y="830" width="100" height="60" as="geometry" />
        </mxCell>
        <mxCell id="CgwxtlaAnWrpsqy49woL-87" value="Can_name" style="ellipse;whiteSpace=wrap;html=1;" vertex="1" parent="1">
          <mxGeometry x="540" y="1030" width="100" height="60" as="geometry" />
        </mxCell>
        <mxCell id="CgwxtlaAnWrpsqy49woL-88" value="Can_Address" style="ellipse;whiteSpace=wrap;html=1;" vertex="1" parent="1">
          <mxGeometry x="560" y="890" width="100" height="60" as="geometry" />
        </mxCell>
        <mxCell id="CgwxtlaAnWrpsqy49woL-89" value="#Can_ID" style="ellipse;whiteSpace=wrap;html=1;" vertex="1" parent="1">
          <mxGeometry x="425" y="1030" width="100" height="60" as="geometry" />
        </mxCell>
        <mxCell id="CgwxtlaAnWrpsqy49woL-90" value="Can_mobile" style="ellipse;whiteSpace=wrap;html=1;" vertex="1" parent="1">
          <mxGeometry x="590" y="960" width="100" height="60" as="geometry" />
        </mxCell>
        <mxCell id="CgwxtlaAnWrpsqy49woL-91" value="" style="endArrow=none;html=1;rounded=0;" edge="1" parent="1" source="CgwxtlaAnWrpsqy49woL-89" target="CgwxtlaAnWrpsqy49woL-53">
          <mxGeometry width="50" height="50" relative="1" as="geometry">
            <mxPoint x="330" y="1070" as="sourcePoint" />
            <mxPoint x="380" y="1020" as="targetPoint" />
          </mxGeometry>
        </mxCell>
        <mxCell id="CgwxtlaAnWrpsqy49woL-92" value="" style="endArrow=none;html=1;rounded=0;entryX=1;entryY=1;entryDx=0;entryDy=0;exitX=0.32;exitY=0.033;exitDx=0;exitDy=0;exitPerimeter=0;" edge="1" parent="1" source="CgwxtlaAnWrpsqy49woL-87" target="CgwxtlaAnWrpsqy49woL-53">
          <mxGeometry width="50" height="50" relative="1" as="geometry">
            <mxPoint x="540" y="1020" as="sourcePoint" />
            <mxPoint x="590" y="970" as="targetPoint" />
          </mxGeometry>
        </mxCell>
        <mxCell id="CgwxtlaAnWrpsqy49woL-93" value="" style="endArrow=none;html=1;rounded=0;exitX=0.75;exitY=0;exitDx=0;exitDy=0;entryX=0.33;entryY=1.017;entryDx=0;entryDy=0;entryPerimeter=0;" edge="1" parent="1" source="CgwxtlaAnWrpsqy49woL-53" target="CgwxtlaAnWrpsqy49woL-86">
          <mxGeometry width="50" height="50" relative="1" as="geometry">
            <mxPoint x="480" y="940" as="sourcePoint" />
            <mxPoint x="530" y="890" as="targetPoint" />
          </mxGeometry>
        </mxCell>
        <mxCell id="CgwxtlaAnWrpsqy49woL-94" value="" style="endArrow=none;html=1;rounded=0;exitX=1;exitY=0.25;exitDx=0;exitDy=0;" edge="1" parent="1" source="CgwxtlaAnWrpsqy49woL-53" target="CgwxtlaAnWrpsqy49woL-88">
          <mxGeometry width="50" height="50" relative="1" as="geometry">
            <mxPoint x="560" y="1010" as="sourcePoint" />
            <mxPoint x="610" y="960" as="targetPoint" />
          </mxGeometry>
        </mxCell>
        <mxCell id="CgwxtlaAnWrpsqy49woL-95" value="" style="endArrow=none;html=1;rounded=0;" edge="1" parent="1" source="CgwxtlaAnWrpsqy49woL-53" target="CgwxtlaAnWrpsqy49woL-90">
          <mxGeometry width="50" height="50" relative="1" as="geometry">
            <mxPoint x="720" y="1060" as="sourcePoint" />
            <mxPoint x="770" y="1010" as="targetPoint" />
          </mxGeometry>
        </mxCell>
        <mxCell id="CgwxtlaAnWrpsqy49woL-97" value="" style="endArrow=none;html=1;rounded=0;entryX=0;entryY=0.5;entryDx=0;entryDy=0;edgeStyle=orthogonalEdgeStyle;" edge="1" parent="1" target="CgwxtlaAnWrpsqy49woL-53">
          <mxGeometry width="50" height="50" relative="1" as="geometry">
            <mxPoint x="340" y="1020" as="sourcePoint" />
            <mxPoint x="330" y="990" as="targetPoint" />
            <Array as="points">
              <mxPoint x="340" y="960" />
            </Array>
          </mxGeometry>
        </mxCell>
        <mxCell id="CgwxtlaAnWrpsqy49woL-98" value="Has" style="rhombus;whiteSpace=wrap;html=1;" vertex="1" parent="1">
          <mxGeometry x="300" y="1020" width="80" height="80" as="geometry" />
        </mxCell>
        <mxCell id="CgwxtlaAnWrpsqy49woL-99" value="Vote" style="rounded=0;whiteSpace=wrap;html=1;" vertex="1" parent="1">
          <mxGeometry x="280" y="1150" width="120" height="60" as="geometry" />
        </mxCell>
        <mxCell id="CgwxtlaAnWrpsqy49woL-101" value="" style="endArrow=none;html=1;rounded=0;entryX=0.5;entryY=1;entryDx=0;entryDy=0;exitX=0.5;exitY=0;exitDx=0;exitDy=0;" edge="1" parent="1" source="CgwxtlaAnWrpsqy49woL-99" target="CgwxtlaAnWrpsqy49woL-98">
          <mxGeometry width="50" height="50" relative="1" as="geometry">
            <mxPoint x="230" y="1170" as="sourcePoint" />
            <mxPoint x="280" y="1120" as="targetPoint" />
          </mxGeometry>
        </mxCell>
        <mxCell id="CgwxtlaAnWrpsqy49woL-102" value="Vote_ID" style="ellipse;whiteSpace=wrap;html=1;" vertex="1" parent="1">
          <mxGeometry x="440" y="1200" width="120" height="60" as="geometry" />
        </mxCell>
        <mxCell id="CgwxtlaAnWrpsqy49woL-103" value="Time" style="ellipse;whiteSpace=wrap;html=1;" vertex="1" parent="1">
          <mxGeometry x="330" y="1250" width="110" height="60" as="geometry" />
        </mxCell>
        <mxCell id="CgwxtlaAnWrpsqy49woL-105" value="Duration" style="ellipse;whiteSpace=wrap;html=1;strokeColor=default;dashed=1;" vertex="1" parent="1">
          <mxGeometry x="190" y="1230" width="110" height="60" as="geometry" />
        </mxCell>
        <mxCell id="CgwxtlaAnWrpsqy49woL-107" value="" style="endArrow=none;html=1;rounded=0;entryX=0;entryY=1;entryDx=0;entryDy=0;exitX=0.5;exitY=0;exitDx=0;exitDy=0;" edge="1" parent="1" source="CgwxtlaAnWrpsqy49woL-105" target="CgwxtlaAnWrpsqy49woL-99">
          <mxGeometry width="50" height="50" relative="1" as="geometry">
            <mxPoint x="140" y="1220" as="sourcePoint" />
            <mxPoint x="190" y="1170" as="targetPoint" />
          </mxGeometry>
        </mxCell>
        <mxCell id="CgwxtlaAnWrpsqy49woL-108" value="" style="endArrow=none;html=1;rounded=0;entryX=0.75;entryY=1;entryDx=0;entryDy=0;exitX=0.5;exitY=0;exitDx=0;exitDy=0;" edge="1" parent="1" source="CgwxtlaAnWrpsqy49woL-103" target="CgwxtlaAnWrpsqy49woL-99">
          <mxGeometry width="50" height="50" relative="1" as="geometry">
            <mxPoint x="320" y="1270" as="sourcePoint" />
            <mxPoint x="370" y="1220" as="targetPoint" />
          </mxGeometry>
        </mxCell>
        <mxCell id="CgwxtlaAnWrpsqy49woL-109" value="" style="endArrow=none;html=1;rounded=0;" edge="1" parent="1" source="CgwxtlaAnWrpsqy49woL-99" target="CgwxtlaAnWrpsqy49woL-102">
          <mxGeometry width="50" height="50" relative="1" as="geometry">
            <mxPoint x="440" y="1190" as="sourcePoint" />
            <mxPoint x="490" y="1140" as="targetPoint" />
          </mxGeometry>
        </mxCell>
      </root>
    </mxGraphModel>
  </diagram>
</mxfile>
